<svg xmlns="http://www.w3.org/2000/svg" height="1024" preserveAspectRatio="none" style="display: block;" version="1.1" viewBox="0 0 2048 2048" width="1024">
<defs>
	<linearGradient gradientUnits="userSpaceOnUse" id="Gradient1" x1="809.859" x2="793.135" y1="1090.73" y2="1089.36">
		<stop class="stop0" offset="0" stop-color="rgb(255,255,255)" stop-opacity="0.47451"></stop>
		<stop class="stop1" offset="1" stop-color="rgb(255,255,255)" stop-opacity="0.533333"></stop>
	</linearGradient>
</defs>
<path d="M 1053.54 1021.3 C 1059.46 1020.71 1065.41 1020.45 1071.36 1020.51 C 1108.27 1020.5 1143.6 1035.42 1169.33 1061.88 C 1217.36 1111.37 1212.45 1150.46 1212.25 1213.21 L 1212 1303.41 C 1200.92 1303.18 1185.69 1302.78 1174.84 1303.4 C 1135.55 1305.64 1139.15 1286.53 1139.51 1253.76 L 1139.74 1195.9 C 1139.79 1149.28 1139.4 1109.01 1086.26 1093.61 C 1079.27 1092.14 1072.13 1091.57 1065 1091.91 C 1032.16 1093.62 1009.02 1114.2 1003.44 1146.36 C 1000.95 1160.74 1001.28 1179.89 1001.25 1194.7 C 1001.17 1216.41 1001.31 1238.12 1001.66 1259.83 C 1002.2 1295.24 1001.68 1305.15 962.201 1303.38 C 952.044 1302.92 939.646 1303.12 929.266 1302.98 C 928.568 1271.53 929.196 1238.96 929.205 1207.42 C 930.003 1184.71 927.413 1161.39 931.493 1138.94 C 943.297 1073.98 989.84 1031.58 1053.54 1021.3 z" fill="rgb(14,4,51)" transform="translate(0,0)"></path>
<path d="M 1772.58 1024.49 C 1807.35 1022.87 1824.95 1027.84 1855.4 1042.04 C 1841.3 1059.11 1817.79 1082.35 1801.49 1098.05 C 1770.92 1090.18 1749.79 1095.04 1726.99 1117.9 C 1697.65 1147.33 1707.24 1192.49 1736.71 1217.94 C 1773.8 1249.96 1817.87 1232.98 1847.73 1200.07 C 1856.5 1209.55 1865.44 1218.89 1874.53 1228.06 C 1880.36 1233.97 1891.24 1244.31 1895.63 1250.53 C 1894.34 1252.34 1892.99 1254.11 1891.58 1255.83 C 1869.52 1282.61 1834.05 1301.19 1799.51 1303.8 C 1754.45 1307.19 1721 1299.14 1686.11 1270.15 C 1613.89 1210.15 1632.48 1088.55 1710.92 1042.89 C 1731.43 1030.9 1749.11 1026.04 1772.58 1024.49 z" fill="rgb(14,4,51)" transform="translate(0,0)"></path>
<path d="M 806.73 1295.41 C 795.005 1301.06 781.35 1302.89 768.54 1304.35 C 666.828 1315.9 585.764 1213.13 620.893 1116.73 C 633.952 1080.25 660.994 1050.46 696.049 1033.94 C 770.315 999.43 851.712 1033.07 885.516 1106.49 C 887.52 1110.96 889.441 1115.46 891.278 1120 C 891.021 1121.16 890.663 1125.2 889.88 1126.03 C 889.362 1126.58 887.723 1124.87 887.606 1124.73 C 887.055 1124.28 885.843 1124.18 885.314 1124.08 C 882.94 1121.94 880.292 1118.36 877.501 1115.75 C 859.996 1099.39 847.691 1092.37 824.165 1088.01 C 813.396 1085.41 800.284 1084.39 789.249 1084.84 C 746.986 1085.14 698.983 1095.43 687.334 1142.73 C 681.237 1167.5 686.04 1194.67 704.975 1212.79 C 718.562 1226.05 736.885 1233.32 755.865 1232.99 C 777.096 1232.44 790.522 1225.09 806.855 1212.54 L 806.73 1295.41 z" fill="rgb(16,195,190)" transform="translate(0,0)"></path>
<path d="M 532.561 1022.51 C 554.662 1022.06 576.77 1022.14 598.866 1022.76 C 598.929 1045.57 599.327 1069.35 598.613 1092.07 L 558.732 1091.86 C 532.744 1091.78 510.107 1090.69 489.018 1108.55 C 460.457 1132.74 461.754 1158.66 461.508 1192.21 C 461.36 1211.16 461.358 1230.11 461.501 1249.06 C 461.559 1259.34 461.975 1271.36 461.225 1281.56 C 460.572 1290.45 458.741 1294.13 452.121 1299.45 C 439.573 1305.56 404.39 1303.4 388.813 1303.33 C 388.135 1279.72 389.063 1254 388.878 1230.23 C 388.427 1172.41 384.474 1121.26 425.555 1074.17 C 455.632 1039.69 487.757 1025.78 532.561 1022.51 z" fill="rgb(14,4,51)" transform="translate(0,0)"></path>
<path d="M 1426.46 1018.41 C 1449.79 1016.94 1488.07 1018.35 1512.17 1018.51 C 1482.19 1047.24 1452.5 1076.27 1423.12 1105.61 C 1414.02 1114.62 1380.45 1149.71 1372.36 1153.67 C 1338.94 1167.01 1333.84 1168.59 1321.53 1202.44 C 1310.05 1234.02 1319.8 1260.5 1313.41 1288.68 C 1309.92 1297.01 1304.86 1302.03 1295.64 1302.75 C 1279.07 1304.06 1260.33 1303.34 1243.74 1303.21 C 1242.93 1292.9 1243.35 1280.18 1243.14 1269.79 C 1242.24 1224.47 1248.61 1186.81 1277.18 1150.45 C 1289.35 1134.96 1304.11 1121.79 1318.7 1108.28 L 1366.45 1064.05 C 1381.03 1050.49 1396.56 1034.89 1412.03 1022.47 C 1415.61 1019.59 1421.81 1019.06 1426.46 1018.41 z" fill="rgb(14,4,51)" transform="translate(0,0)"></path>
<path d="M 1551.45 1018.35 C 1558.4 1017.94 1565.74 1017.93 1572.67 1017.79 C 1591.06 1017.42 1606.8 1016.62 1607.4 1039.73 C 1607.77 1053.78 1607.75 1068.09 1607.81 1082.15 L 1607.91 1161.12 L 1607.75 1236.07 C 1607.72 1251.19 1607.85 1266.28 1607.35 1281.39 C 1606.92 1294.37 1601.36 1299.09 1589.59 1302.99 C 1572.66 1303.74 1550.2 1303.34 1533.2 1303.14 C 1532.82 1283.65 1533.45 1263.94 1533.48 1244.41 L 1533.16 1137.69 L 1533.13 1072.78 C 1533.14 1061.27 1532.81 1049.52 1533.58 1038.06 C 1534.4 1025.85 1539.97 1020.56 1551.45 1018.35 z" fill="rgb(14,4,51)" transform="translate(0,0)"></path>
<path d="M 279.043 1094.48 C 299.865 1093.49 327.636 1094.18 348.693 1094.54 C 345.608 1113.19 340.47 1137.41 327.452 1151.81 C 314.105 1166.58 299.519 1163.5 281.814 1164.89 C 263.589 1166.32 245.842 1172.67 232.844 1185.86 C 194.074 1225.2 219.799 1278.7 203.085 1298.19 C 188.852 1306.95 153.848 1303.3 136.639 1303.12 C 135.977 1293.33 136.854 1283.01 136.335 1273.39 C 131.354 1181.04 182.131 1102.56 279.043 1094.48 z" fill="rgb(14,4,51)" transform="translate(0,0)"></path>
<path d="M 1272.51 914.137 C 1285.35 913.222 1301.87 913.798 1314.87 913.959 L 1314.96 1024.78 C 1314.96 1043.4 1315.77 1072.67 1313.92 1090.56 C 1305.87 1097.67 1295.51 1104.62 1287.07 1112.09 C 1275.38 1122.45 1268.75 1130.4 1259.28 1142.43 C 1252.71 1151.75 1247.64 1161.47 1242.14 1171.45 C 1241.11 1128.08 1242.07 1080.93 1242 1037.18 L 1241.94 981.614 C 1241.94 953.053 1236.87 921.812 1272.51 914.137 z" fill="rgb(14,4,51)" transform="translate(0,0)"></path>
<path d="M 784.645 1103.04 C 790.426 1102.51 796.59 1102.88 802.414 1103.12 C 805.223 1104.18 810.876 1104.61 814.084 1105.05 L 817.168 1105.73 C 834.58 1106.8 862.246 1122.71 874.12 1135.5 C 903.173 1166.79 901.233 1201.25 901.312 1240.05 L 901.015 1302.92 L 827.538 1303.03 C 825.685 1272.18 827.215 1233.72 827.14 1202.49 C 827.006 1146.3 828.091 1139.29 784.645 1103.04 z" fill="rgb(14,4,51)" transform="translate(0,0)"></path>
<path d="M 304.727 914.433 C 330.424 912.602 377.218 914.29 404.516 914.5 C 405.524 942.481 408.028 982.914 371.494 986.673 C 336.85 990.239 307.425 979.834 273.998 996.041 C 272.644 996.791 271.297 997.552 269.956 998.324 C 250.899 1009.31 241.406 1023.86 235.71 1044.82 C 227.513 1033.37 222.491 1019.96 221.154 1005.94 C 216.946 964.575 239.869 929.269 280.291 918.218 C 288.972 915.845 295.68 915.25 304.727 914.433 z" fill="rgb(14,4,51)" transform="translate(0,0)"></path>
<path d="M 1873.15 1054.5 C 1877.27 1055.75 1886.64 1062.47 1889.68 1065.89 C 1902.03 1079.78 1904.32 1090.21 1903.92 1107.71 C 1896.86 1120.28 1836.85 1181.21 1823.12 1195.43 C 1820.43 1198.21 1811.25 1205.18 1807.41 1206.99 C 1793.4 1213.62 1779.73 1212.5 1765.64 1207.83 C 1731.08 1191.97 1721.95 1147.55 1759.36 1128.19 C 1774.27 1120.47 1788.52 1124.66 1803.39 1130.21 C 1819.68 1109.57 1854.08 1072.78 1873.15 1054.5 z" fill="rgb(16,195,190)" transform="translate(0,0)"></path>
<path d="M 1370.84 1173.38 C 1375.42 1173.2 1383.1 1173.15 1386.64 1176.47 C 1430.95 1218.07 1478.27 1259.74 1521.2 1302.64 C 1511.75 1303.12 1500.91 1302.96 1491.36 1303.05 C 1476.43 1303.1 1432.33 1306.01 1420.12 1299.23 C 1410.93 1294.14 1393.77 1274.97 1384.76 1266.64 C 1373.84 1253.91 1352.29 1240.11 1343.19 1226.56 C 1328.15 1204.15 1347.32 1176.85 1370.84 1173.38 z" fill="rgb(14,4,51)" transform="translate(0,0)"></path>
<path d="M 135.231 1149.38 C 135.837 1115.36 132.24 1062.14 141.47 1031.63 C 153.324 991.571 180.751 957.943 217.606 938.277 L 220.445 941.598 C 203.028 967.269 192.781 1002.03 201.011 1032.02 C 208.696 1060.02 210.257 1067.35 210.779 1096.26 C 174.091 1110.38 160.115 1125.31 138.413 1156.9 C 136.723 1154.69 136.433 1153.84 135.754 1151.15 L 135.231 1149.38 z" fill="rgb(16,195,190)" transform="translate(0,0)"></path>
<path d="M 1473.45 699.213 C 1498.3 698.055 1515.45 711.842 1513.51 738.354 C 1513.1 743.978 1510.72 749.907 1509.67 755.59 C 1514.61 762.92 1538.8 785.418 1546.79 793.177 C 1560.65 786.437 1574.62 782.838 1589.07 791.023 C 1596.65 795.337 1602.15 802.535 1604.34 810.978 C 1610.42 833.588 1598.23 851.748 1575.94 857.076 C 1540.5 858.008 1525.23 828.487 1542.05 798.753 C 1530.47 789.142 1514.22 772.042 1503.47 761.056 C 1491.04 768.17 1476.12 771.491 1462.93 764.246 C 1454.5 759.57 1448.32 751.674 1445.82 742.364 C 1440.37 722.067 1453.64 703.918 1473.45 699.213 z" fill="rgb(16,195,190)" transform="translate(0,0)"></path>
<path d="M 1566.13 699.235 C 1573.77 698.733 1579.97 699.387 1586.89 703.022 C 1595.37 707.535 1601.58 715.375 1604.04 724.659 C 1606.84 734.945 1605.08 744.498 1599.78 753.57 C 1608.83 763.214 1628.34 781.957 1638.29 791.01 C 1643.91 787.562 1648.98 786.002 1655.62 785.44 C 1665.22 784.658 1674.71 787.908 1681.82 794.411 C 1688.94 800.949 1693.19 810.044 1693.62 819.704 C 1694.72 843.742 1677.73 855.997 1655.31 856.181 C 1649.19 855.472 1643.34 853.242 1638.3 849.694 C 1630.43 844.143 1625.24 835.555 1623.98 826.006 C 1622.31 813.827 1625.93 805.509 1632.86 796.166 C 1620.97 783.936 1607.85 771.914 1595.53 759.972 C 1582.22 769.226 1565.85 772.305 1551.52 763.253 C 1543.42 758.121 1537.81 749.869 1536.01 740.455 C 1534.33 731.1 1536.4 721.458 1541.78 713.623 C 1548.05 704.655 1555.87 701.219 1566.13 699.235 z" fill="rgb(14,4,51)" transform="translate(0,0)"></path>
<path d="M 1503.92 848.631 C 1447.77 881.212 1423.02 801.368 1468.99 786.745 C 1477.62 783.957 1487.02 784.82 1495 789.133 C 1516.32 800.459 1520.41 821.899 1508.8 842.091 L 1509.95 843.561 C 1514.99 850.083 1520.72 856.166 1526.41 862.125 C 1525 864.168 1523.82 865.837 1522.52 867.973 C 1516.08 862.055 1509.78 855.126 1503.92 848.631 z" fill="rgb(16,195,190)" transform="translate(0,0)"></path>
<path d="M 1522.52 867.973 C 1523.82 865.837 1525 864.168 1526.41 862.125 C 1533.18 866.614 1540.74 874.389 1546.87 880.161 C 1555.2 873.642 1565.32 872.666 1575.5 873.841 C 1607.41 877.523 1617.68 921.933 1589.26 937.556 C 1553.97 956.949 1521.16 920.535 1541.52 885.624 C 1534.13 878.917 1529.67 875.298 1522.52 867.973 z" fill="rgb(14,4,51)" transform="translate(0,0)"></path>
<path d="M 1475.63 873.447 C 1494.99 871.695 1512.15 885.903 1514.03 905.259 C 1515.91 924.615 1501.82 941.861 1482.47 943.873 C 1462.95 945.905 1445.5 931.648 1443.6 912.108 C 1441.7 892.568 1456.07 875.217 1475.63 873.447 z" fill="rgb(16,195,190)" transform="translate(0,0)"></path>
<path d="M 789.249 1084.84 C 800.284 1084.39 813.396 1085.41 824.165 1088.01 C 816.777 1098.54 811.704 1092.97 817.168 1105.73 L 814.084 1105.05 C 811.924 1103.73 811.692 1103.14 809.912 1101.76 C 808.353 1099.7 802.535 1095.49 809.826 1092.67 C 811.535 1092.01 815.787 1090.06 812.99 1088.09 C 809.095 1085.34 799.917 1088.35 795.125 1087.72 C 791.941 1087.42 790.147 1092.58 788.499 1093.86 C 787.978 1094.17 787.457 1094.49 786.937 1094.81 L 785.765 1095.53 L 783.514 1097.25 C 783.756 1091.39 782.144 1088.55 787.789 1085.63 L 789.249 1084.84 z" fill="rgb(254,255,254)" fill-opacity="0.4" transform="translate(0,0)"></path>
<path d="M 785.765 1095.53 L 786.937 1094.81 C 787.457 1094.49 787.978 1094.17 788.499 1093.86 C 790.147 1092.58 791.941 1087.42 795.125 1087.72 C 799.917 1088.35 809.095 1085.34 812.99 1088.09 C 815.787 1090.06 811.535 1092.01 809.826 1092.67 C 802.535 1095.49 808.353 1099.7 809.912 1101.76 C 796.751 1097.03 804.422 1092.68 787.975 1095.14 L 785.765 1095.53 z" fill="url(#Gradient1)" transform="translate(0,0)"></path>
<path d="M 787.975 1095.14 C 804.422 1092.68 796.751 1097.03 809.912 1101.76 C 811.692 1103.14 811.924 1103.73 814.084 1105.05 C 810.876 1104.61 805.223 1104.18 802.414 1103.12 C 802.878 1103.68 788.376 1095.3 787.975 1095.14 z" fill="rgb(254,255,254)" fill-opacity="0.560784" transform="translate(0,0)"></path>
<path d="M 785.765 1095.53 L 787.975 1095.14 C 788.376 1095.3 802.878 1103.68 802.414 1103.12 C 796.59 1102.88 790.426 1102.51 784.645 1103.04 C 784.316 1101.1 783.939 1099.17 783.514 1097.25 L 785.765 1095.53 z" fill="rgb(254,255,254)" fill-opacity="0.988235" transform="translate(0,0)"></path>
<path d="M 885.314 1124.08 C 885.843 1124.18 887.055 1124.28 887.606 1124.73 C 887.723 1124.87 889.362 1126.58 889.88 1126.03 C 890.663 1125.2 891.021 1121.16 891.278 1120 C 895.075 1128.64 896.235 1134.85 898.165 1143.98 C 894.483 1138.41 888.695 1129.7 885.314 1124.08 z" fill="rgb(42,190,197)" transform="translate(0,0)"></path>
<path d="M 217.606 938.277 C 225.046 934.277 227.096 933.51 220.445 941.598 L 217.606 938.277 z" fill="rgb(42,190,197)" fill-opacity="0.956863" transform="translate(0,0)"></path>
<path d="M 135.231 1149.38 L 135.754 1151.15 C 136.433 1153.84 136.723 1154.69 138.413 1156.9 C 137.535 1158.08 135.037 1161.46 135.097 1157.64 L 135.231 1149.38 z" fill="rgb(42,190,197)" fill-opacity="0.976471" transform="translate(0,0)"></path>
<metadata><recraft-signature>{"signed_by": "recraft", "signature_b64": "P3b9Na2oACsEIRLitNf6Er3BepTOIwQYBGFL6ks+GawxizzJttBlBG8oskGrHnVA6msWVrGA+9rBBGbGvs5NDw==", "signing_algo": "Ed25519", "generation_timestamp": 1776091248, "identifier": "d7853b28-64a5-45a9-aca1-07228566c323"}</recraft-signature></metadata></svg>